<svg width="216" height="64" viewBox="0 0 216 64" fill="none" xmlns="http://www.w3.org/2000/svg">
<path d="M208 1.28C209.782 1.28 211.492 1.988 212.752 3.24824C214.012 4.50849 214.72 6.21775 214.72 8V56C214.72 57.7823 214.012 59.4915 212.752 60.7518C211.492 62.012 209.782 62.72 208 62.72H8C6.21775 62.72 4.50849 62.012 3.24824 60.7518C1.988 59.4915 1.28 57.7823 1.28 56V8C1.28 6.21775 1.988 4.50849 3.24824 3.24824C4.50849 1.988 6.21775 1.28 8 1.28H208ZM208 0H8C5.87827 0 3.84344 0.842855 2.34315 2.34315C0.842855 3.84344 0 5.87827 0 8V56C0 58.1217 0.842855 60.1566 2.34315 61.6569C3.84344 63.1571 5.87827 64 8 64H208C210.122 64 212.157 63.1571 213.657 61.6569C215.157 60.1566 216 58.1217 216 56V8C216 5.87827 215.157 3.84344 213.657 2.34315C212.157 0.842855 210.122 0 208 0Z" fill="#67CEEE"/>
<path d="M109.024 34.8001C107.681 34.8065 106.369 35.2106 105.255 35.9617C104.141 36.7127 103.274 37.7769 102.765 39.02C102.255 40.2631 102.125 41.6293 102.391 42.9463C102.657 44.2632 103.307 45.4719 104.259 46.4197C105.211 47.3675 106.423 48.0119 107.741 48.2717C109.059 48.5315 110.425 48.395 111.666 47.8794C112.906 47.3638 113.967 46.4922 114.712 45.3747C115.458 44.2571 115.856 42.9437 115.856 41.6001C115.869 40.7008 115.701 39.8081 115.362 38.9751C115.023 38.1421 114.52 37.3858 113.882 36.7513C113.245 36.1169 112.486 35.6172 111.651 35.2819C110.817 34.9467 109.923 34.7829 109.024 34.8001ZM109.024 45.7281C108.198 45.7859 107.373 45.5938 106.658 45.1768C105.942 44.7597 105.368 44.137 105.011 43.3896C104.654 42.6423 104.53 41.8047 104.656 40.986C104.781 40.1672 105.15 39.4051 105.714 38.7986C106.278 38.1921 107.011 37.7694 107.819 37.5854C108.627 37.4013 109.471 37.4645 110.242 37.7667C111.013 38.0688 111.676 38.596 112.143 39.2797C112.611 39.9633 112.862 40.7719 112.864 41.6001C112.89 42.125 112.81 42.6496 112.63 43.1432C112.45 43.6368 112.173 44.0893 111.815 44.474C111.457 44.8588 111.026 45.1679 110.546 45.3833C110.067 45.5987 109.549 45.716 109.024 45.7281ZM94.1281 34.8001C92.7839 34.8033 91.4708 35.2048 90.3546 35.9539C89.2385 36.703 88.3694 37.7661 87.8572 39.009C87.345 40.2518 87.2126 41.6185 87.4767 42.9365C87.7409 44.2546 88.3898 45.4647 89.3415 46.4141C90.2931 47.3635 91.5048 48.0095 92.8234 48.2706C94.142 48.5317 95.5085 48.3961 96.7501 47.881C97.9917 47.3658 99.0527 46.4943 99.7992 45.3764C100.546 44.2584 100.944 42.9444 100.944 41.6001C100.957 40.7008 100.789 39.8081 100.45 38.9751C100.111 38.1421 99.6076 37.3858 98.9701 36.7513C98.3327 36.1169 97.5741 35.6172 96.7395 35.2819C95.9049 34.9467 95.0114 34.7829 94.1121 34.8001H94.1281ZM94.1281 45.7281C93.3015 45.7892 92.4756 45.5999 91.7579 45.185C91.0403 44.7701 90.4643 44.1488 90.1047 43.4019C89.7451 42.655 89.6188 41.8172 89.7421 40.9975C89.8653 40.1778 90.2325 39.4142 90.7958 38.806C91.3592 38.1979 92.0925 37.7735 92.9004 37.588C93.7083 37.4025 94.5533 37.4646 95.3255 37.766C96.0977 38.0675 96.7612 38.5945 97.2297 39.2783C97.6981 39.9622 97.9499 40.7712 97.9521 41.6001C97.9779 42.125 97.8983 42.6496 97.7181 43.1432C97.5379 43.6368 97.2606 44.0893 96.9028 44.474C96.5449 44.8588 96.1136 45.1679 95.6343 45.3833C95.155 45.5987 94.6374 45.716 94.1121 45.7281H94.1281ZM76.3841 36.8961V39.7761H83.2961C83.1878 41.1326 82.6239 42.4126 81.6961 43.4081C81.0046 44.1125 80.1733 44.6643 79.2557 45.0281C78.3381 45.3918 77.3544 45.5594 76.3681 45.5201C74.3313 45.5201 72.3778 44.711 70.9376 43.2707C69.4973 41.8304 68.6881 39.877 68.6881 37.8401C68.6881 35.8033 69.4973 33.8498 70.9376 32.4096C72.3778 30.9693 74.3313 30.1601 76.3681 30.1601C78.3166 30.1284 80.1982 30.8706 81.6001 32.2241L83.6321 30.1921C82.6857 29.2338 81.5565 28.4752 80.3115 27.9612C79.0665 27.4473 77.731 27.1885 76.3841 27.2001C74.9617 27.1448 73.5428 27.3771 72.2123 27.8833C70.8819 28.3894 69.6673 29.159 68.6413 30.1458C67.6154 31.1325 66.7992 32.3163 66.2417 33.6261C65.6842 34.9358 65.3969 36.3447 65.3969 37.7681C65.3969 39.1916 65.6842 40.6005 66.2417 41.9102C66.7992 43.22 67.6154 44.4037 68.6413 45.3905C69.6673 46.3773 70.8819 47.1468 72.2123 47.653C73.5428 48.1591 74.9617 48.3915 76.3841 48.3361C77.7537 48.398 79.1205 48.1659 80.3928 47.6553C81.6651 47.1447 82.8133 46.3676 83.7601 45.3761C85.4364 43.5344 86.3314 41.1134 86.2561 38.6241C86.2613 38.0177 86.2077 37.4122 86.0961 36.8161L76.3841 36.8961ZM148.88 39.1361C148.463 37.9085 147.683 36.8366 146.643 36.0623C145.603 35.288 144.352 34.8479 143.056 34.8001C142.181 34.7984 141.315 34.9762 140.511 35.3226C139.707 35.6689 138.983 36.1765 138.383 36.8138C137.783 37.4511 137.321 38.2047 137.024 39.028C136.726 39.8512 136.601 40.7266 136.656 41.6001C136.637 42.4944 136.798 43.3834 137.13 44.2141C137.461 45.0447 137.957 45.7999 138.587 46.4347C139.218 47.0694 139.969 47.5706 140.798 47.9083C141.626 48.246 142.514 48.4133 143.408 48.4001C144.527 48.4062 145.631 48.1346 146.619 47.6096C147.608 47.0847 148.45 46.3228 149.072 45.3921L146.752 43.7921C146.406 44.3694 145.916 44.8469 145.329 45.1778C144.743 45.5088 144.081 45.6818 143.408 45.6801C142.715 45.7066 142.03 45.5238 141.442 45.1557C140.854 44.7876 140.391 44.2512 140.112 43.6161L149.216 39.8561L148.88 39.1361ZM139.6 41.4081C139.568 40.9133 139.634 40.4169 139.796 39.948C139.958 39.4792 140.212 39.0474 140.542 38.6779C140.873 38.3084 141.274 38.0085 141.723 37.796C142.171 37.5835 142.657 37.4625 143.152 37.4401C143.668 37.4061 144.183 37.5245 144.632 37.7805C145.082 38.0365 145.446 38.4189 145.68 38.8801L139.6 41.4081ZM132.208 48.0001H135.2V28.0001H132.208V48.0001ZM127.312 36.3201H127.2C126.749 35.816 126.197 35.4128 125.579 35.1371C124.961 34.8613 124.293 34.7193 123.616 34.7201C121.868 34.8049 120.219 35.5592 119.011 36.8267C117.804 38.0941 117.13 39.7776 117.13 41.5281C117.13 43.2787 117.804 44.9622 119.011 46.2296C120.219 47.4971 121.868 48.2514 123.616 48.3361C124.294 48.3475 124.966 48.2102 125.586 47.9338C126.205 47.6573 126.756 47.2485 127.2 46.7361H127.296V47.7121C127.296 50.3201 125.904 51.7121 123.664 51.7121C122.918 51.6947 122.194 51.4556 121.584 51.0254C120.975 50.5951 120.507 49.9932 120.24 49.2961L117.632 50.3841C118.123 51.5783 118.96 52.5986 120.034 53.3141C121.109 54.0297 122.373 54.4079 123.664 54.4001C127.168 54.4001 130.064 52.3361 130.064 47.3121V35.2001H127.312V36.3201ZM123.888 45.7281C122.856 45.6372 121.895 45.1629 121.196 44.3988C120.496 43.6347 120.108 42.6362 120.108 41.6001C120.108 40.5641 120.496 39.5656 121.196 38.8015C121.895 38.0374 122.856 37.5631 123.888 37.4721C124.4 37.4984 124.901 37.6268 125.362 37.8498C125.824 38.0728 126.236 38.3858 126.574 38.7705C126.913 39.1552 127.171 39.6038 127.333 40.0897C127.496 40.5757 127.559 41.0892 127.52 41.6001C127.564 42.1132 127.503 42.6299 127.341 43.1188C127.179 43.6077 126.92 44.0587 126.579 44.4446C126.238 44.8305 125.823 45.1432 125.357 45.3638C124.892 45.5844 124.387 45.7084 123.872 45.7281H123.888ZM162.896 28.0001H155.744V48.0001H158.736V40.4161H162.912C163.765 40.4774 164.621 40.3623 165.427 40.0781C166.234 39.7939 166.973 39.3466 167.599 38.7641C168.224 38.1817 168.723 37.4765 169.065 36.6927C169.406 35.9088 169.582 35.0631 169.582 34.2081C169.582 33.3532 169.406 32.5075 169.065 31.7236C168.723 30.9398 168.224 30.2346 167.599 29.6522C166.973 29.0697 166.234 28.6224 165.427 28.3382C164.621 28.0539 163.765 27.9389 162.912 28.0001H162.896ZM162.896 37.6001H158.72V30.7841H162.96C163.87 30.7841 164.743 31.1457 165.387 31.7893C166.031 32.433 166.392 33.3059 166.392 34.2161C166.392 35.1264 166.031 35.9993 165.387 36.6429C164.743 37.2866 163.87 37.6481 162.96 37.6481L162.896 37.6001ZM181.344 34.7201C180.255 34.655 179.17 34.9096 178.224 35.4525C177.277 35.9954 176.51 36.803 176.016 37.7761L178.672 38.8801C178.934 38.3975 179.331 38.0014 179.813 37.7401C180.296 37.4787 180.845 37.3634 181.392 37.4081C181.772 37.3638 182.157 37.3955 182.524 37.5015C182.892 37.6074 183.234 37.7855 183.532 38.0253C183.83 38.2651 184.077 38.5618 184.259 38.8981C184.441 39.2344 184.554 39.6036 184.592 39.9841V40.1921C183.631 39.6833 182.559 39.4195 181.472 39.4241C178.608 39.4241 175.712 41.0241 175.712 43.9201C175.74 44.5376 175.892 45.1432 176.159 45.701C176.425 46.2589 176.8 46.7576 177.263 47.1678C177.725 47.578 178.265 47.8914 178.851 48.0893C179.436 48.2872 180.056 48.3657 180.672 48.3201C181.426 48.3743 182.18 48.2245 182.855 47.8867C183.531 47.5489 184.103 47.0354 184.512 46.4001H184.608V48.0001H187.488V40.3041C187.488 36.8001 184.832 34.7681 181.424 34.7681L181.344 34.7201ZM180.976 45.6801C180 45.6801 178.64 45.1841 178.64 43.9841C178.64 42.3841 180.336 41.8561 181.84 41.8561C182.791 41.8327 183.73 42.0648 184.56 42.5281C184.46 43.3944 184.05 44.1953 183.406 44.7833C182.763 45.3713 181.928 45.7069 181.056 45.7281L180.976 45.6801ZM197.984 35.2001L194.56 43.8721H194.464L190.912 35.2001H187.712L193.04 47.3281L190 54.0641H193.12L201.312 35.2001H197.984ZM171.088 48.0001H174.08V28.0001H171.088V48.0001Z" fill="#67CEEE"/>
<path d="M75.7722 16.484C75.7994 17.0709 75.707 17.6572 75.5007 18.2073C75.2945 18.7573 74.9785 19.2598 74.5722 19.684C74.1184 20.1554 73.5704 20.5258 72.9639 20.7712C72.3574 21.0165 71.706 21.1313 71.0522 21.108C70.0601 21.1003 69.0925 20.7999 68.2704 20.2446C67.4483 19.6893 66.8084 18.9037 66.4309 17.9863C66.0533 17.0689 65.9549 16.0605 66.148 15.0874C66.341 14.1143 66.817 13.2198 67.5162 12.516C67.9757 12.0469 68.5266 11.677 69.1348 11.4293C69.743 11.1817 70.3956 11.0614 71.0522 11.076C71.7286 11.0738 72.3983 11.2099 73.0202 11.476C73.5991 11.7096 74.1145 12.0769 74.5242 12.548L73.6762 13.396C73.3568 13.0162 72.9535 12.7158 72.4981 12.5187C72.0427 12.3215 71.5477 12.233 71.0522 12.26C70.5524 12.2576 70.0573 12.3561 69.5965 12.5496C69.1357 12.7432 68.7187 13.0278 68.3706 13.3863C68.0225 13.7449 67.7504 14.1701 67.5705 14.6364C67.3907 15.1027 67.3069 15.6006 67.3242 16.1C67.3137 16.8459 67.5243 17.5781 67.9295 18.2043C68.3347 18.8306 68.9163 19.3228 69.6009 19.6189C70.2855 19.9149 71.0424 20.0016 71.7762 19.868C72.5101 19.7344 73.1879 19.3864 73.7242 18.868C74.2165 18.3345 74.5005 17.6416 74.5242 16.916H71.0522V15.764H75.7082C75.7508 16.0017 75.7723 16.2426 75.7722 16.484ZM83.1002 12.484H78.7802V15.524H82.7162V16.676H78.7802V19.716H83.1002V20.9H77.5002V11.3H83.1002V12.484ZM88.3482 20.9H87.1162V12.484H84.4282V11.3H91.1002V12.484H88.3482V20.9ZM95.8042 20.9V11.3H97.0362V20.9H95.8042ZM102.508 20.9H101.276V12.484H98.5882V11.3H105.18V12.484H102.508V20.9ZM117.676 19.652C116.741 20.5822 115.475 21.1043 114.156 21.1043C112.837 21.1043 111.572 20.5822 110.636 19.652C109.727 18.6897 109.22 17.4159 109.22 16.092C109.22 14.7681 109.727 13.4944 110.636 12.532C111.097 12.0676 111.646 11.699 112.25 11.4475C112.854 11.196 113.502 11.0665 114.156 11.0665C114.811 11.0665 115.458 11.196 116.063 11.4475C116.667 11.699 117.215 12.0676 117.676 12.532C118.589 13.4926 119.098 14.767 119.098 16.092C119.098 17.4171 118.589 18.6915 117.676 19.652ZM111.548 18.852C112.241 19.5418 113.179 19.9291 114.156 19.9291C115.134 19.9291 116.071 19.5418 116.764 18.852C117.448 18.0985 117.826 17.1175 117.826 16.1C117.826 15.0826 117.448 14.1016 116.764 13.348C116.071 12.6582 115.134 12.271 114.156 12.271C113.179 12.271 112.241 12.6582 111.548 13.348C110.865 14.1016 110.486 15.0826 110.486 16.1C110.486 17.1175 110.865 18.0985 111.548 18.852ZM120.828 20.9V11.3H122.332L127.004 18.772V11.3H128.236V20.9H126.956L122.076 13.076V20.9H120.828Z" fill="#67CEEE"/>
<path fill-rule="evenodd" clip-rule="evenodd" d="M114.156 11.2265C113.523 11.2265 112.896 11.3518 112.311 11.5952C111.727 11.8384 111.197 12.1946 110.751 12.6434C109.871 13.5758 109.38 14.8097 109.38 16.092C109.38 17.3743 109.871 18.6079 110.751 19.5404C111.656 20.4396 112.88 20.9443 114.156 20.9443C115.432 20.9443 116.657 20.4395 117.562 19.5402C118.445 18.6096 118.938 17.3753 118.938 16.092C118.938 14.8086 118.445 13.5742 117.561 12.6436C117.116 12.1947 116.585 11.8384 116.001 11.5952C115.416 11.3518 114.789 11.2265 114.156 11.2265ZM112.188 11.2998C112.812 11.0402 113.481 10.9065 114.156 10.9065C114.832 10.9065 115.5 11.0402 116.124 11.2998C116.748 11.5594 117.314 11.9399 117.79 12.4193L117.792 12.4218C118.733 13.4121 119.258 14.726 119.258 16.092C119.258 17.4581 118.733 18.772 117.792 19.7623L117.789 19.7655C116.824 20.7255 115.518 21.2643 114.156 21.2643C112.795 21.2643 111.489 20.7255 110.523 19.7655L110.52 19.762C109.583 18.7699 109.06 17.4568 109.06 16.092C109.06 14.7273 109.583 13.4142 110.52 12.4222L110.523 12.4193C110.998 11.9399 111.565 11.5594 112.188 11.2998ZM71.0486 11.236C70.4139 11.2219 69.7831 11.3381 69.1952 11.5775C68.6072 11.817 68.0747 12.1745 67.6305 12.628L67.6297 12.6288C66.9527 13.3102 66.4918 14.1763 66.3049 15.1185C66.118 16.0607 66.2133 17.0371 66.5788 17.9254C66.9444 18.8137 67.564 19.5743 68.36 20.112C69.1559 20.6497 70.0929 20.9405 71.0534 20.948L71.0579 20.9481C71.6892 20.9706 72.3182 20.8598 72.9039 20.6229C73.4895 20.386 74.0186 20.0283 74.4567 19.5732C74.8481 19.1647 75.1523 18.6808 75.3509 18.1511C75.5496 17.6213 75.6385 17.0567 75.6123 16.4914L75.7722 16.484L75.6122 16.484C75.6122 16.2966 75.5988 16.1094 75.572 15.924H71.2122V16.756H74.6895L74.6841 16.9213C74.6591 17.6853 74.3601 18.4148 73.8417 18.9765L73.8355 18.9833C73.2765 19.5236 72.5698 19.8862 71.8049 20.0254C71.04 20.1647 70.251 20.0743 69.5373 19.7657C68.8237 19.4571 68.2175 18.944 67.7952 18.2912C67.3735 17.6395 67.154 16.8778 67.1641 16.1017C67.1467 15.582 67.2342 15.0641 67.4213 14.5789C67.6088 14.0925 67.8927 13.6489 68.2558 13.2749C68.619 12.9009 69.0539 12.604 69.5345 12.4021C70.0137 12.2008 70.5285 12.0981 71.0482 12.1C71.5669 12.0724 72.0849 12.1654 72.5617 12.3718C72.9865 12.5558 73.3682 12.8252 73.6832 13.1628L74.3034 12.5425C73.9278 12.1433 73.4697 11.8299 72.9603 11.6244L72.9572 11.6232C72.3554 11.3656 71.7073 11.2339 71.0527 11.236L71.0486 11.236ZM75.9322 16.4804C75.9598 17.0876 75.864 17.6942 75.6505 18.2634C75.4367 18.8338 75.1091 19.3548 74.6877 19.7947C74.2184 20.2823 73.6513 20.6657 73.0239 20.9195C72.3973 21.173 71.7243 21.2918 71.0487 21.268C70.0259 21.2596 69.0284 20.9497 68.1808 20.3772C67.3327 19.8042 66.6724 18.9937 66.2829 18.0472C65.8934 17.1007 65.7918 16.0602 65.991 15.0562C66.1902 14.0524 66.6811 13.1297 67.4023 12.4037C67.877 11.9191 68.4462 11.537 69.0745 11.2812C69.7023 11.0255 70.3759 10.9012 71.0537 10.916C71.7507 10.914 72.4407 11.0543 73.0816 11.3283C73.6833 11.5713 74.2191 11.9533 74.6449 12.4431L74.7428 12.5557L73.6659 13.6325L73.5537 13.499C73.2503 13.1381 72.8672 12.8528 72.4345 12.6655C72.0019 12.4782 71.5316 12.3941 71.0609 12.4198L71.0514 12.4203C70.5731 12.418 70.0994 12.5119 69.6584 12.6971C69.2175 12.8823 68.8185 13.1547 68.4854 13.4978C68.1523 13.8409 67.8919 14.2478 67.7198 14.694C67.5478 15.1402 67.4676 15.6166 67.4841 16.0945L67.4843 16.1023C67.4743 16.8165 67.6758 17.5177 68.0638 18.1174C68.4518 18.7171 69.0088 19.1885 69.6644 19.472C70.32 19.7555 71.0448 19.8386 71.7476 19.7106C72.4488 19.5829 73.0966 19.2509 73.6097 18.7562C74.0366 18.292 74.2974 17.7011 74.3541 17.076H70.8922V15.604H75.842L75.8656 15.7358C75.9098 15.9815 75.932 16.2307 75.9322 16.4804ZM77.3402 11.14H83.2602V12.644H78.9402V15.364H82.8762V16.836H78.9402V19.556H83.2602V21.06H77.3402V11.14ZM77.6602 11.46V20.74H82.9402V19.876H78.6202V16.516H82.5562V15.684H78.6202V12.324H82.9402V11.46H77.6602ZM84.2682 11.14H91.2602V12.644H88.5082V21.06H86.9562V12.644H84.2682V11.14ZM84.5882 11.46V12.324H87.2762V20.74H88.1882V12.324H90.9402V11.46H84.5882ZM95.6442 11.14H97.1962V21.06H95.6442V11.14ZM95.9642 11.46V20.74H96.8762V11.46H95.9642ZM98.4282 11.14H105.34V12.644H102.668V21.06H101.116V12.644H98.4282V11.14ZM98.7482 11.46V12.324H101.436V20.74H102.348V12.324H105.02V11.46H98.7482ZM120.668 11.14H122.421L126.844 18.2144V11.14H128.396V21.06H126.867L122.236 13.6349V21.06H120.668V11.14ZM120.988 11.46V20.74H121.916V12.5172L127.045 20.74H128.076V11.46H127.164V19.3297L122.243 11.46H120.988ZM111.435 13.2347C112.158 12.515 113.136 12.111 114.156 12.111C115.176 12.111 116.154 12.515 116.877 13.2347L116.883 13.2404C117.593 14.0234 117.986 15.0429 117.986 16.1C117.986 17.1572 117.593 18.1765 116.883 18.9595L116.877 18.9656C116.155 19.6852 115.176 20.0891 114.156 20.0891C113.136 20.0891 112.158 19.6851 111.435 18.9654L111.548 18.852L111.43 18.9595C110.719 18.1765 110.326 17.1572 110.326 16.1C110.326 15.0429 110.719 14.0235 111.43 13.2405L111.435 13.2347ZM111.664 18.7415C112.326 19.3997 113.222 19.7691 114.156 19.7691C115.09 19.7691 115.986 19.3997 116.648 18.7415C117.304 18.0178 117.666 17.0764 117.666 16.1C117.666 15.1237 117.304 14.1823 116.648 13.4585C115.986 12.8004 115.09 12.431 114.156 12.431C113.222 12.431 112.326 12.8004 111.664 13.4585C111.009 14.1823 110.646 15.1237 110.646 16.1C110.646 17.0764 111.009 18.0178 111.664 18.7415Z" fill="#67CEEE"/>
<path d="M16.7925 52.3174L36.3935 31.9874L16.809 11.6938C16.2859 12.0098 15.9622 12.7413 15.9622 13.6989V50.3318C15.9692 51.2894 16.2812 51.9674 16.7925 52.3174Z" fill="#67CEEE"/>
<path d="M37.0956 31.426L42.9341 25.3695L19.1578 11.847C18.7574 11.6057 18.3026 11.4782 17.8395 11.4775L37.0932 31.4235L37.0956 31.426Z" fill="#67CEEE"/>
<path d="M37.0955 32.5513L17.7808 52.5848C18.2655 52.5932 18.743 52.4619 19.1601 52.2057L42.9833 38.6466L37.0955 32.5513Z" fill="#67CEEE"/>
<path d="M51.5475 30.2764L43.6354 25.7681L37.6373 31.9898L43.6799 38.2504L51.5451 33.7543C53.2177 32.7991 53.2176 31.2267 51.5475 30.2764Z" fill="#67CEEE"/>
</svg>
